# 3ds Max Wavefront OBJ Exporter v0.97b - (c)2007 guruware
# File Created: 23.01.2016 16:56:50

mtllib Blue Gem.mtl

#
# object Blue_Gem
#

v  -0.0234 3.1011 5.4237
v  -0.0003 0.0444 0.0037
v  1.9793 3.1011 4.9462
v  3.7270 3.1011 3.8375
v  4.8207 3.1011 2.0538
v  5.2973 3.1011 0.0085
v  4.8302 3.1011 -2.0374
v  3.7622 3.1011 -3.8297
v  2.0172 3.1011 -4.9320
v  -1.7511 5.3788 -1.8042
v  1.7634 5.3788 -1.8019
v  0.0133 4.3475 -4.4325
v  4.3315 4.3475 0.0068
v  1.7505 5.3788 1.8116
v  -1.7636 5.3788 1.8020
v  -0.0135 4.3475 4.4326
v  -4.3316 4.3475 -0.0068
v  -2.0178 3.1011 4.9394
v  -3.7623 3.1011 3.8298
v  -4.8209 3.1011 -2.0537
v  -3.7346 3.1011 -3.8378
v  -4.8382 3.1011 2.0444
v  -1.9800 3.1011 -4.9387
v  3.0521 4.3475 3.1393
v  3.0696 4.3475 -3.1258
v  0.0232 3.1011 -5.4237
v  -3.0702 4.3475 3.1333
v  -3.0523 4.3475 -3.1392
v  -5.2974 3.1011 -0.0084
# 29 vertices

vn 0.1164 -0.8649 0.4883
vn 0.4332 -0.8613 0.2656
vn 0.4966 -0.8605 -0.1134
vn 0.2687 -0.8642 -0.4254
vn 0.0002 0.9310 -0.3651
vn 0.3718 0.9283 0.0013
vn 0.0000 1.0000 -0.0000
vn -0.0010 0.9308 0.3656
vn -0.3719 0.9283 -0.0013
vn -0.2701 -0.8641 0.4247
vn -0.4336 -0.8615 -0.2640
vn -0.4342 -0.8620 0.2617
vn -0.2678 -0.8637 -0.4269
vn 0.2747 0.7075 0.6511
vn 0.6598 0.7015 0.2695
vn 0.7773 0.6025 0.1811
vn 0.6612 0.7014 -0.2663
vn 0.2779 0.7073 -0.6500
vn 0.1893 0.6121 -0.7678
vn -0.2762 0.7083 0.6497
vn -0.6592 0.7038 0.2648
vn -0.6598 0.7015 -0.2695
vn -0.2754 0.7056 -0.6529
vn -0.1864 0.6106 -0.7697
vn -0.4220 0.6080 -0.6725
vn -0.6803 0.6046 -0.4142
vn -0.7773 0.6025 -0.1811
vn -0.7785 0.6030 0.1741
vn -0.6806 0.6071 0.4101
vn -0.4253 0.6099 0.6687
vn -0.1866 0.6124 0.7682
vn 0.1836 0.6109 0.7701
vn 0.4259 0.6066 0.6713
vn 0.6806 0.6023 0.4173
vn 0.7780 0.6026 -0.1776
vn 0.6818 0.6083 -0.4063
vn 0.4223 0.6122 -0.6685
vn -0.4969 -0.8607 0.1112
vn -0.1184 -0.8651 0.4874
vn 0.2701 -0.8635 0.4258
vn 0.4963 -0.8604 0.1157
vn 0.4357 -0.8619 -0.2596
vn 0.1200 -0.8652 -0.4868
vn -0.1181 -0.8650 -0.4877
vn -0.4963 -0.8604 -0.1156
vn 0.4787 0.8559 0.1955
vn 0.4798 0.8558 -0.1933
vn 0.2012 0.8591 -0.4707
vn -0.1985 0.8597 -0.4706
vn -0.4782 0.8562 -0.1953
vn -0.4795 0.8561 0.1926
vn -0.1998 0.8598 0.4700
vn 0.1991 0.8589 0.4719
# 53 vertex normals

vt 0.3750 1.4000 0.0000
vt 0.5833 1.2988 0.0000
vt 0.4375 1.4000 0.0000
vt 0.5000 1.4000 0.0000
vt 0.5625 1.4000 0.0000
vt 0.6250 1.4000 0.0000
vt 0.6875 1.4000 0.0000
vt 0.7500 1.4000 0.0000
vt 0.8125 1.4000 0.0000
vt 0.7071 1.0000 0.0000
vt 1.0000 1.2929 0.0000
vt 0.2929 1.0000 0.0000
vt 0.0000 1.2929 0.0000
vt 0.0000 1.7071 0.0000
vt 0.5000 1.8000 0.0000
vt 0.3750 1.8000 0.0000
vt 0.6250 1.8000 0.0000
vt 0.7500 1.8000 0.0000
vt 0.8750 1.8000 0.0000
vt 0.8750 1.4000 0.0000
# 20 texture coords

g Blue_Gem
usemtl Material__25
s off
f 1/1/1 2/2/1 3/3/1 
f 4/4/2 2/2/2 5/5/2 
f 6/6/3 2/2/3 7/7/3 
f 8/8/4 2/2/4 9/9/4 
f 10/10/5 11/10/5 12/11/5 
f 13/12/6 11/10/6 14/13/6 
f 15/13/7 11/10/7 10/10/7 
f 14/13/7 11/10/7 15/13/7 
f 16/14/8 14/13/8 15/13/8 
f 15/13/9 10/10/9 17/12/9 
f 18/3/10 19/4/10 2/2/10 
f 20/7/11 21/8/11 2/2/11 
f 19/4/12 22/5/12 2/2/12 
f 21/8/13 23/9/13 2/2/13 
f 24/15/14 16/16/14 3/3/14 
f 13/17/15 24/15/15 5/5/15 
f 6/6/16 13/17/16 5/5/16 
f 25/18/17 13/17/17 7/7/17 
f 12/19/18 25/18/18 9/9/18 
f 26/20/19 12/19/19 9/9/19 
f 27/15/20 18/3/20 16/16/20 
f 17/17/21 22/5/21 27/15/21 
f 28/18/22 20/7/22 17/17/22 
f 12/19/23 23/9/23 28/18/23 
f 26/20/24 23/9/24 12/19/24 
f 28/18/25 23/9/25 21/8/25 
f 21/8/26 20/7/26 28/18/26 
f 17/17/27 20/7/27 29/6/27 
f 29/6/28 22/5/28 17/17/28 
f 27/15/29 22/5/29 19/4/29 
f 19/4/30 18/3/30 27/15/30 
f 16/16/31 18/3/31 1/1/31 
f 1/1/32 3/3/32 16/16/32 
f 4/4/33 24/15/33 3/3/33 
f 4/4/34 5/5/34 24/15/34 
f 6/6/35 7/7/35 13/17/35 
f 8/8/36 25/18/36 7/7/36 
f 8/8/37 9/9/37 25/18/37 
f 22/5/38 29/6/38 2/2/38 
f 1/1/39 18/3/39 2/2/39 
f 2/2/40 4/4/40 3/3/40 
f 2/2/41 6/6/41 5/5/41 
f 2/2/42 8/8/42 7/7/42 
f 2/2/43 26/20/43 9/9/43 
f 23/9/44 26/20/44 2/2/44 
f 29/6/45 20/7/45 2/2/45 
f 14/13/46 24/13/46 13/12/46 
f 11/10/47 13/12/47 25/10/47 
f 11/10/48 25/10/48 12/11/48 
f 12/11/49 28/10/49 10/10/49 
f 28/10/50 17/12/50 10/10/50 
f 17/12/51 27/13/51 15/13/51 
f 27/13/52 16/14/52 15/13/52 
f 14/13/53 16/14/53 24/13/53 
# 0 polygons - 54 triangles

